<svg width="1396" height="396" viewBox="0 0 1396 396" fill="none" xmlns="http://www.w3.org/2000/svg">
<g clip-path="url(#clip0_4_2)">
<path d="M712 77C730.15 77 748.3 77 767 77C768.925 87.91 770.752 98.7625 772.252 109.728C772.458 111.212 772.664 112.695 772.87 114.179C773.307 117.332 773.742 120.486 774.176 123.64C774.862 128.629 775.553 133.617 776.244 138.606C777.584 148.276 778.919 157.948 780.253 167.619C781.959 179.977 783.666 192.334 785.378 204.691C786.065 209.65 786.749 214.609 787.432 219.568C787.856 222.643 788.281 225.717 788.707 228.792C788.904 230.217 789.101 231.643 789.296 233.068C789.563 235.013 789.833 236.957 790.103 238.901C790.253 239.989 790.403 241.076 790.557 242.197C790.924 244.518 791.379 246.737 792 249C792.067 248.419 792.133 247.837 792.202 247.238C794.303 229.027 796.762 210.873 799.31 192.721C799.861 188.793 800.409 184.864 800.958 180.936C801.876 174.369 802.795 167.803 803.716 161.238C804.78 153.656 805.84 146.074 806.898 138.491C807.923 131.15 808.95 123.809 809.978 116.468C810.414 113.359 810.848 110.251 811.282 107.142C811.791 103.498 812.301 99.854 812.814 96.2105C813.09 94.2389 813.365 92.2669 813.64 90.2949C813.805 89.1224 813.97 87.9498 814.141 86.7416C814.283 85.7233 814.426 84.7049 814.573 83.6557C815 81 815 81 816 77C834.15 77 852.3 77 871 77C871 156.86 871 236.72 871 319C858.79 319 846.58 319 834 319C833.67 261.91 833.34 204.82 833 146C831.135 158.393 829.269 170.786 827.348 183.555C826.168 191.384 824.988 199.214 823.807 207.043C821.93 219.483 820.055 231.922 818.184 244.363C816.821 253.422 815.457 262.48 814.089 271.538C813.364 276.337 812.641 281.136 811.921 285.935C811.243 290.448 810.563 294.961 809.88 299.473C809.629 301.133 809.379 302.793 809.131 304.453C808.793 306.712 808.451 308.971 808.107 311.23C807.917 312.496 807.726 313.763 807.529 315.068C807 318 807 318 806 320C795.44 320 784.88 320 774 320C772.499 310.209 770.998 300.417 769.5 290.625C769.383 289.861 769.266 289.096 769.146 288.309C761.687 239.551 754.354 190.774 747 142C746.67 200.41 746.34 258.82 746 319C734.78 319 723.56 319 712 319C712 239.14 712 159.28 712 77Z" fill="url(#paint0_linear_4_2)"/>
<path d="M1280 77C1292.54 77 1305.08 77 1318 77C1318 109.67 1318 142.34 1318 176C1331.53 176 1345.06 176 1359 176C1359 143.33 1359 110.66 1359 77C1371.21 77 1383.42 77 1396 77C1396 156.86 1396 236.72 1396 319C1383.46 319 1370.92 319 1358 319C1358 283.03 1358 247.06 1358 210C1344.47 210 1330.94 210 1317 210C1317 245.97 1317 281.94 1317 319C1304.79 319 1292.58 319 1280 319C1280 239.14 1280 159.28 1280 77Z" fill="url(#paint1_linear_4_2)"/>
<path d="M1236 83.3125C1237.37 84.5045 1238.7 85.7347 1240 87C1240.71 87.6793 1241.41 88.3587 1242.14 89.0586C1256.5 103.976 1257.18 124.044 1257.06 143.563C1257.06 145.063 1257.05 146.564 1257.05 148.064C1257.04 151.71 1257.02 155.355 1257 159C1251.89 159.025 1246.78 159.043 1241.67 159.055C1239.93 159.06 1238.2 159.067 1236.46 159.075C1233.96 159.088 1231.47 159.093 1228.97 159.098C1228.19 159.103 1227.41 159.108 1226.6 159.113C1224.73 159.113 1222.87 159.062 1221 159C1219.01 157.013 1219.84 153.067 1219.82 150.344C1219.8 148.747 1219.78 147.151 1219.75 145.555C1219.72 143.038 1219.69 140.522 1219.67 138.005C1220.04 124.813 1220.04 124.813 1215 113C1209.77 108.908 1204.47 108.264 1198 109C1192.18 109.888 1189.7 111.887 1186.16 116.344C1183.81 119.695 1183.87 121.995 1183.85 126.071C1183.85 127.366 1183.84 128.662 1183.83 129.996C1183.83 131.441 1183.83 132.885 1183.82 134.329C1183.82 135.843 1183.81 137.357 1183.8 138.872C1183.79 142.994 1183.78 147.116 1183.77 151.238C1183.76 153.814 1183.76 156.39 1183.75 158.966C1183.73 167.028 1183.72 175.089 1183.71 183.151C1183.7 192.453 1183.67 201.754 1183.63 211.056C1183.6 218.247 1183.59 225.438 1183.58 232.629C1183.58 236.922 1183.57 241.216 1183.55 245.51C1183.52 249.553 1183.52 253.596 1183.53 257.64C1183.53 259.12 1183.52 260.6 1183.51 262.08C1183.44 270.118 1183.5 276.185 1188 283C1192.83 287.682 1198.69 287.285 1205.09 287.215C1210.19 286.839 1212.9 285.194 1216.31 281.5C1218.65 278.044 1219.13 275.417 1219.21 271.345C1219.23 270.404 1219.25 269.463 1219.27 268.494C1219.28 267.482 1219.3 266.469 1219.32 265.426C1219.35 263.867 1219.35 263.867 1219.38 262.277C1219.44 258.956 1219.5 255.634 1219.56 252.313C1219.61 250.062 1219.65 247.811 1219.69 245.561C1219.8 240.04 1219.9 234.52 1220 229C1231.88 229 1243.76 229 1256 229C1256.05 235.956 1256.09 242.912 1256.11 249.868C1256.12 252.232 1256.13 254.595 1256.15 256.959C1256.18 260.367 1256.19 263.775 1256.2 267.184C1256.21 268.231 1256.22 269.278 1256.23 270.357C1256.23 279.623 1254.87 287.365 1250.38 295.5C1250.02 296.146 1249.67 296.792 1249.3 297.457C1242.66 309.184 1233.69 316.759 1220.69 320.875C1208.68 324.186 1193.97 324.669 1182 321C1181.23 320.84 1180.46 320.68 1179.67 320.516C1167.91 317.776 1158.36 309.007 1152 299C1144.8 285.794 1143.54 270.797 1143.61 256.035C1143.61 254.62 1143.6 253.206 1143.6 251.791C1143.58 248.001 1143.59 244.212 1143.6 240.423C1143.6 236.424 1143.6 232.425 1143.59 228.426C1143.59 221.715 1143.59 215.005 1143.61 208.294C1143.63 200.578 1143.62 192.862 1143.6 185.145C1143.59 178.475 1143.59 171.804 1143.6 165.134C1143.6 161.169 1143.6 157.205 1143.59 153.241C1143.58 149.511 1143.59 145.782 1143.61 142.052C1143.61 140.061 1143.6 138.069 1143.59 136.078C1143.72 117.384 1147.76 101.002 1160.5 86.875C1179.46 68.6425 1215.2 68.353 1236 83.3125Z" fill="url(#paint2_linear_4_2)"/>
<path d="M446.563 73.625C447.704 73.6134 448.845 73.6018 450.021 73.5899C460.408 73.6254 469.577 75.2742 478.25 81.1875C479.142 81.7856 479.142 81.7856 480.053 82.3958C491.987 90.6416 498.267 102.663 501.079 116.717C502.551 125.083 502.32 133.473 502.188 141.938C502.126 147.568 502.064 153.199 502 159C490.12 159 478.24 159 466 159C465.688 142.563 465.688 142.563 465.612 137.432C465.386 122.995 465.386 122.995 458 111C452.98 107.899 446.312 108.224 440.715 109.535C436.65 110.926 433.618 112.476 431 116C429.31 120.262 428.748 123.83 428.739 128.4C428.729 130.301 428.729 130.301 428.718 132.24C428.72 133.632 428.723 135.024 428.725 136.416C428.721 137.891 428.716 139.367 428.71 140.842C428.696 144.84 428.696 148.838 428.698 152.836C428.699 156.179 428.695 159.521 428.69 162.863C428.679 170.751 428.678 178.639 428.684 186.527C428.69 194.654 428.678 202.78 428.657 210.906C428.639 217.893 428.633 224.88 428.636 231.867C428.638 236.036 428.636 240.204 428.622 244.373C428.609 248.295 428.611 252.216 428.624 256.138C428.626 257.573 428.624 259.008 428.615 260.443C428.546 273.06 428.546 273.06 434.375 283.938C439.576 288.024 446.637 287.606 453 287C456.94 286.031 459.938 284.628 462.201 281.158C464.972 275.104 465.601 269.892 465.609 263.277C465.626 262.291 465.642 261.305 465.659 260.289C465.708 257.172 465.729 254.055 465.75 250.938C465.778 248.811 465.808 246.684 465.84 244.557C465.917 239.371 465.957 234.187 466 229C477.88 229 489.76 229 502 229C502.046 235.207 502.086 241.414 502.11 247.622C502.12 249.729 502.133 251.837 502.151 253.944C502.175 256.99 502.187 260.036 502.195 263.082C502.206 264.01 502.216 264.937 502.227 265.893C502.229 282.816 497.028 297.679 485.129 309.926C472.721 321.585 456.868 323.764 440.48 323.277C426.036 322.549 412.048 316.551 402.188 305.863C392.001 292.53 389.54 277.783 389.596 261.372C389.59 259.838 389.583 258.304 389.575 256.77C389.557 252.637 389.558 248.505 389.564 244.372C389.567 240.906 389.561 237.44 389.555 233.974C389.541 225.787 389.543 217.601 389.554 209.414C389.565 201.006 389.551 192.598 389.525 184.19C389.502 176.937 389.496 169.684 389.502 162.43C389.505 158.114 389.503 153.797 389.485 149.48C389.47 145.416 389.474 141.353 389.493 137.289C389.496 135.81 389.493 134.331 389.483 132.852C389.362 114.614 393.784 99.8292 406.457 86.3281C417.962 75.7954 431.451 73.4709 446.563 73.625Z" fill="url(#paint3_linear_4_2)"/>
<path d="M515 77C520.393 76.9754 525.787 76.9572 531.18 76.9451C533.017 76.94 534.853 76.9332 536.689 76.9246C539.323 76.9125 541.956 76.9068 544.59 76.9024C545.416 76.8972 546.242 76.892 547.093 76.8867C549.062 76.8865 551.032 76.938 553 77C554.925 78.9248 554.692 82.3583 555.031 84.9917C555.13 85.7317 555.229 86.4717 555.331 87.2341C555.664 89.7318 555.99 92.2303 556.317 94.7288C556.553 96.5122 556.789 98.2956 557.026 100.079C557.671 104.936 558.31 109.793 558.948 114.651C559.615 119.721 560.286 124.791 560.958 129.861C562.229 139.469 563.496 149.078 564.761 158.686C566.202 169.622 567.647 180.558 569.092 191.493C572.067 213.995 575.035 236.497 578 259C578.33 259 578.66 259 579 259C579.123 258.068 579.246 257.136 579.372 256.176C582.355 233.535 585.343 210.894 588.336 188.253C589.783 177.305 591.229 166.356 592.671 155.407C593.927 145.867 595.186 136.328 596.449 126.789C597.118 121.735 597.786 116.681 598.45 111.626C599.074 106.874 599.702 102.123 600.333 97.3718C600.565 95.6228 600.795 93.8736 601.024 92.1242C601.335 89.7461 601.651 87.3689 601.969 84.9917C602.059 84.2904 602.15 83.589 602.243 82.8664C602.886 78.1141 602.886 78.1141 604 77C606.594 76.9115 609.16 76.8847 611.754 76.9024C612.529 76.9038 613.305 76.9052 614.104 76.9066C616.59 76.9123 619.076 76.9248 621.562 76.9375C623.244 76.9425 624.926 76.9471 626.607 76.9512C630.738 76.9614 634.869 76.9807 639 77C637.07 92.2276 634.948 107.416 632.646 122.591C632.322 124.739 631.998 126.887 631.674 129.035C630.807 134.786 629.936 140.536 629.065 146.287C628.336 151.102 627.608 155.917 626.88 160.732C625.166 172.077 623.448 183.421 621.729 194.765C619.956 206.467 618.188 218.17 616.421 229.873C614.9 239.948 613.376 250.023 611.85 260.098C610.94 266.105 610.032 272.112 609.125 278.119C608.276 283.746 607.424 289.373 606.569 294.999C606.256 297.067 605.943 299.135 605.632 301.203C605.209 304.015 604.781 306.827 604.353 309.638C604.229 310.465 604.106 311.292 603.979 312.143C603.114 317.772 603.114 317.772 602 320C585.5 320 569 320 552 320C549.75 312.125 549.75 312.125 549.207 308.545C549.081 307.73 548.955 306.914 548.826 306.074C548.695 305.199 548.565 304.324 548.431 303.422C548.286 302.476 548.141 301.531 547.992 300.556C547.511 297.398 547.035 294.239 546.56 291.08C546.215 288.811 545.87 286.542 545.525 284.273C544.589 278.119 543.659 271.964 542.73 265.809C541.757 259.369 540.78 252.929 539.803 246.49C538.164 235.678 536.529 224.865 534.895 214.053C533.216 202.93 531.532 191.808 529.844 180.687C527.808 167.277 525.777 153.867 523.748 140.456C522.974 135.335 522.198 130.215 521.421 125.095C520.506 119.069 519.595 113.043 518.687 107.016C518.353 104.802 518.018 102.589 517.681 100.376C517.222 97.3588 516.768 94.3414 516.315 91.3238C516.18 90.4444 516.046 89.5649 515.907 88.6588C515.323 84.7371 514.829 80.9789 515 77Z" fill="url(#paint4_linear_4_2)"/>
<path d="M1012 77C1050.94 77 1089.88 77 1130 77C1130 88.22 1130 99.44 1130 111C1116.8 111 1103.6 111 1090 111C1090 179.64 1090 248.28 1090 319C1077.46 319 1064.92 319 1052 319C1052 250.36 1052 181.72 1052 111C1038.8 111 1025.6 111 1012 111C1012 99.78 1012 88.56 1012 77Z" fill="url(#paint5_linear_4_2)"/>
<path d="M980 77H928C927.53 79.3513 927.052 81.7017 926.64 84.0639L925.907 88.5354L925.482 91.1451C924.998 94.1007 924.514 97.0564 924.031 100.012C923.677 102.181 923.323 104.349 922.968 106.517C921.798 113.672 920.628 120.827 919.46 127.983L918.23 135.518C916.428 146.549 914.626 157.581 912.827 168.612L911.171 178.758C909.393 189.659 907.612 200.56 905.829 211.46C904.095 222.06 902.363 232.66 900.633 243.26L900.305 245.272C899.385 250.919 898.464 256.565 897.54 262.211C896.552 268.242 895.565 274.272 894.583 280.303C894.221 282.533 893.858 284.763 893.494 286.993C892.986 290.084 892.479 293.174 891.977 296.266L891.518 299.093C890.367 306.047 889.565 312.973 889 320C893.131 320.021 897.262 320.038 901.393 320.049C903.074 320.053 904.756 320.057 906.438 320.063C908.924 320.075 911.41 320.088 913.896 320.093L916.246 320.098C918.84 320.115 921.406 320.089 924 320C925.115 318.885 925.115 318.885 925.85 314.036L926.156 311.922C926.377 310.435 926.597 308.948 926.816 307.461C927.155 305.124 927.494 302.788 927.843 300.452C928.071 298.934 928.296 297.415 928.519 295.896L928.844 293.672C929.277 290.782 929.647 287.903 930 285L931 272H975C975 276.12 975.153 279.796 975.711 283.837L976.023 285.996C976.242 287.54 976.46 289.083 976.68 290.627C977.028 293.033 977.375 295.44 977.713 297.848C977.934 299.429 978.157 301.01 978.383 302.59L978.711 304.871C979.44 310.099 980.536 314.877 982 320H1019C1019 316.519 1019.1 313.025 1018.77 309.56L1018.43 307.493L1018.04 305.063L1017.61 302.474C1017.13 299.512 1016.65 296.55 1016.16 293.59C1015.81 291.423 1015.45 289.256 1015.1 287.088C1014.14 281.178 1013.18 275.268 1012.21 269.359C1011.18 263.074 1010.15 256.788 1009.13 250.502C1007.3 239.296 1005.47 228.09 1003.64 216.886C1001.85 205.986 1000.07 195.087 998.291 184.186L997.628 180.114C995.802 168.908 993.974 157.703 992.142 146.498L992.055 145.962C991.261 141.103 990.467 136.245 989.674 131.386C988.691 125.354 987.707 119.323 986.718 113.293C986.353 111.068 985.988 108.844 985.624 106.619C985.12 103.525 984.617 100.432 984.108 97.3386L983.645 94.526L983.227 91.9367L982.824 89.5072C982.25 86.0002 982.25 85.9994 980 77Z" fill="url(#paint6_linear_4_2)"/>
<path d="M63 0C64.32 0.33 65.64 0.66 67 1C67 24.43 67 47.86 67 72C68.65 72.66 70.3 73.32 72 74C74.64 75.32 77.28 76.64 80 78C80 56.22 80 34.44 80 12C80.99 11.67 81.98 11.34 83 11C83.66 11.33 84.32 11.66 85 12C85 35.1 85 58.2 85 82C85.66 82 86.32 82 87 82C87 82.66 87 83.32 87 84C88.65 84.33 90.3 84.66 92 85C92 85.66 92 86.32 92 87C93.65 87.33 95.3 87.66 97 88C96.9955 87.2026 96.9911 86.4053 96.9865 85.5838C96.9465 78.0792 96.916 70.5746 96.8964 63.0699C96.8859 59.2115 96.8717 55.3531 96.8491 51.4946C96.8274 47.7729 96.8154 44.0512 96.8102 40.3294C96.8065 38.9076 96.7993 37.4858 96.7885 36.064C96.7741 34.0767 96.7732 32.0894 96.7729 30.1021C96.7685 28.9695 96.7641 27.837 96.7595 26.6702C97 24 97 24 99 22C101.125 22.375 101.125 22.375 103 23C102.986 23.8614 102.972 24.7228 102.957 25.6104C102.835 33.7466 102.77 41.8808 102.769 50.0179C102.767 54.2012 102.743 58.382 102.667 62.5647C102.595 66.6052 102.582 70.6421 102.609 74.6831C102.609 76.221 102.588 77.7589 102.546 79.2962C102.49 81.4614 102.509 83.6142 102.546 85.7795C102.533 87.6215 102.533 87.6215 102.519 89.5007C104.355 94.8132 104.355 94.8132 116 100C116 77.89 116 55.78 116 33C117.32 32.67 118.64 32.34 120 32C121.45 34.8991 121.119 37.4143 121.114 40.6528C121.114 41.3359 121.114 42.0189 121.114 42.7227C121.113 44.9844 121.105 47.2461 121.098 49.5078C121.096 51.0744 121.094 52.6409 121.093 54.2075C121.09 58.3339 121.08 62.4603 121.069 66.5867C121.058 70.7961 121.054 75.0054 121.049 79.2148C121.038 87.4766 121.021 95.7383 121 104C121.99 104 122.98 104 124 104C124 104.66 124 105.32 124 106C125.65 106.33 127.3 106.66 129 107C129 107.66 129 108.32 129 109C130.98 109.495 130.98 109.495 133 110C133 88.22 133 66.44 133 44C134.32 43.67 135.64 43.34 137 43C139 45 139 45 139.24 47.898C139.236 49.1371 139.232 50.3762 139.227 51.6528C139.227 52.3359 139.228 53.0189 139.228 53.7227C139.227 55.9845 139.211 58.246 139.195 60.5078C139.192 62.0744 139.189 63.6409 139.187 65.2075C139.179 69.3339 139.159 73.4603 139.137 77.5867C139.117 81.796 139.108 86.0054 139.098 90.2148C139.076 98.4766 139.042 106.738 139 115C139.681 115.248 140.361 115.495 141.062 115.75C144.51 117.217 147.747 119.141 151 121C151 99.22 151 77.44 151 55C152.65 54.67 154.3 54.34 156 54C157.433 56.8669 157.165 59.3568 157.205 62.561C157.215 63.2343 157.225 63.9076 157.235 64.6013C157.267 66.8305 157.292 69.0598 157.316 71.2891C157.337 72.8332 157.358 74.3773 157.379 75.9215C157.435 79.9886 157.484 84.0559 157.532 88.1231C157.582 92.2722 157.638 96.4213 157.693 100.57C157.801 108.713 157.902 116.857 158 125C159.485 125.495 159.485 125.495 161 126C161 126.66 161 127.32 161 128C162.65 128.33 164.3 128.66 166 129C166 129.66 166 130.32 166 131C166.66 131 167.32 131 168 131C168.008 130.19 168.016 129.38 168.024 128.546C168.102 120.923 168.19 113.301 168.288 105.679C168.338 101.76 168.384 97.8409 168.422 93.9219C168.459 90.1416 168.505 86.3616 168.558 82.5816C168.577 81.1375 168.592 79.6934 168.603 78.2492C168.62 76.2307 168.65 74.2122 168.681 72.1938C168.694 71.0436 168.708 69.8933 168.722 68.7082C169 66 169 66 171 64C171.99 64 172.98 64 174 64C173.993 64.8762 173.985 65.7523 173.977 66.6551C173.915 74.924 173.896 83.1917 173.925 91.4609C173.938 95.7121 173.935 99.9619 173.894 104.213C173.855 108.318 173.859 112.421 173.894 116.526C173.899 118.089 173.889 119.653 173.863 121.217C173.829 123.414 173.851 125.604 173.886 127.801C173.884 129.049 173.882 130.297 173.88 131.583C175.216 135.658 175.877 135.675 179.502 137.566C183.73 140.286 183.73 140.286 184.836 143.213C185.136 145.965 185.157 148.597 185.082 151.364C185.094 152.928 185.094 152.928 185.106 154.523C185.12 158.016 185.071 161.505 185.022 164.998C185.019 167.501 185.021 170.004 185.026 172.508C185.028 177.897 185.002 183.285 184.952 188.674C184.878 196.466 184.855 204.257 184.844 212.048C184.824 224.69 184.764 237.332 184.679 249.973C184.596 262.252 184.533 274.53 184.494 286.809C184.492 287.566 184.49 288.323 184.487 289.103C184.475 292.902 184.464 296.7 184.453 300.498C184.36 331.999 184.2 363.5 184 395C182.344 395.382 180.675 395.714 179 396C178 395 178 395 177.88 392.184C177.882 390.925 177.884 389.666 177.886 388.369C177.886 387.676 177.886 386.984 177.886 386.27C177.887 383.97 177.895 381.671 177.902 379.371C177.904 377.781 177.906 376.19 177.907 374.6C177.91 370.406 177.92 366.212 177.931 362.018C177.942 357.742 177.946 353.466 177.951 349.189C177.962 340.793 177.979 332.396 178 324C177.01 324 176.02 324 175 324C175 323.34 175 322.68 175 322C174.257 321.711 173.515 321.423 172.75 321.125C170.455 320.186 168.218 319.109 166 318C166 339.78 166 361.56 166 384C164.35 384.33 162.7 384.66 161 385C159.55 382.101 159.881 379.586 159.886 376.347C159.886 375.664 159.886 374.981 159.886 374.277C159.887 372.016 159.895 369.754 159.902 367.492C159.904 365.926 159.906 364.359 159.907 362.793C159.91 358.666 159.92 354.54 159.931 350.413C159.942 346.204 159.946 341.995 159.951 337.785C159.962 329.523 159.979 321.262 160 313C159.319 312.752 158.639 312.505 157.937 312.25C154.49 310.783 151.253 308.859 148 307C148 329.11 148 351.22 148 374C146.35 374.33 144.7 374.66 143 375C141.864 371.592 141.84 368.92 141.795 365.325C141.785 364.652 141.775 363.979 141.765 363.285C141.733 361.061 141.708 358.837 141.684 356.613C141.663 355.071 141.642 353.528 141.621 351.985C141.565 347.926 141.516 343.867 141.468 339.808C141.418 335.666 141.362 331.523 141.307 327.381C141.199 319.254 141.098 311.127 141 303C137.37 301.02 133.74 299.04 130 297C130.005 298.959 130.01 300.917 130.016 302.935C130.032 309.397 130.043 315.859 130.052 322.321C130.057 326.24 130.064 330.159 130.075 334.078C130.086 337.858 130.092 341.638 130.095 345.418C130.097 346.863 130.1 348.307 130.106 349.751C130.113 351.769 130.113 353.788 130.114 355.806C130.116 356.956 130.118 358.107 130.12 359.292C130 362 130 362 129 364C127.68 363.67 126.36 363.34 125 363C125.014 362.139 125.028 361.277 125.043 360.39C125.165 352.253 125.23 344.119 125.231 335.982C125.233 331.799 125.257 327.618 125.333 323.435C125.405 319.395 125.418 315.358 125.391 311.317C125.391 309.779 125.411 308.241 125.454 306.704C125.51 304.539 125.491 302.386 125.454 300.22C125.467 298.378 125.467 298.378 125.481 296.499C123.645 291.187 123.645 291.187 112 286C112 307.78 112 329.56 112 352C110.35 352.33 108.7 352.66 107 353C106.67 329.57 106.34 306.14 106 282C104.35 281.34 102.7 280.68 101 280C101 279.34 101 278.68 101 278C99.8244 277.536 99.8244 277.536 98.625 277.062C96 276 96 276 94 275C94 297.11 94 319.22 94 342C93.01 342.33 92.02 342.66 91 343C90.34 342.67 89.68 342.34 89 342C89 318.57 89 295.14 89 271C87.35 270.34 85.7 269.68 84 269C81.6191 267.738 79.3238 266.367 77 265C77.0044 265.81 77.0089 266.62 77.0134 267.454C77.0535 275.077 77.0839 282.699 77.1036 290.321C77.1141 294.24 77.1282 298.159 77.1509 302.078C77.1726 305.858 77.1845 309.638 77.1897 313.418C77.1934 314.863 77.2007 316.307 77.2114 317.751C77.2259 319.769 77.2268 321.788 77.227 323.806C77.2315 324.956 77.2359 326.107 77.2405 327.292C77 330 77 330 75 332C73.68 331.67 72.36 331.34 71 331C71 307.9 71 284.8 71 261C70.34 261 69.68 261 69 261C69 260.34 69 259.68 69 259C67.35 258.67 65.7 258.34 64 258C64 257.34 64 256.68 64 256C62.35 255.67 60.7 255.34 59 255C59 276.45 59 297.9 59 320C57.35 320.33 55.7 320.66 54 321C53 320 53 320 52.8758 318.254C52.8762 317.485 52.8765 316.717 52.8769 315.926C52.8749 315.042 52.873 314.159 52.8709 313.249C52.8738 312.268 52.8767 311.286 52.8797 310.275C52.8789 309.241 52.878 308.207 52.8771 307.142C52.8755 303.648 52.881 300.155 52.8865 296.662C52.8867 294.169 52.8866 291.676 52.886 289.184C52.8858 283.802 52.8886 278.421 52.8943 273.04C52.9024 265.259 52.905 257.479 52.9062 249.698C52.9084 237.076 52.9151 224.454 52.9245 211.831C52.9337 199.567 52.9408 187.303 52.9451 175.038C52.9453 174.283 52.9456 173.527 52.9459 172.749C52.9472 168.959 52.9484 165.17 52.9497 161.38C52.96 129.92 52.9777 98.46 53 67C54.8281 65.9141 54.8281 65.9141 57 65C59.75 66.375 59.75 66.375 62 68C61.9978 67.1628 61.9955 66.3257 61.9933 65.4632C61.9733 57.5903 61.958 49.7175 61.9482 41.8447C61.9429 37.7967 61.9358 33.7488 61.9245 29.7009C61.9137 25.7976 61.9077 21.8944 61.9051 17.9911C61.9033 16.4987 61.8996 15.0063 61.8943 13.5139C61.887 11.4305 61.886 9.34726 61.8865 7.26392C61.8842 6.07589 61.882 4.88786 61.8797 3.66383C62 1 62 1 63 0Z" fill="url(#paint7_linear_4_2)"/>
<path d="M18 44C21.6923 44.6923 21.6923 44.6923 23 46C23.0964 47.3553 23.1237 48.7155 23.123 50.0742C23.125 50.9575 23.127 51.8408 23.1291 52.7509C23.1262 53.7324 23.1233 54.7139 23.1203 55.7251C23.1211 56.7591 23.122 57.7931 23.1228 58.8584C23.1245 62.3517 23.119 65.8449 23.1135 69.3381C23.1132 71.8309 23.1134 74.3236 23.114 76.8163C23.1142 82.1976 23.1113 87.579 23.1057 92.9603C23.0976 100.741 23.095 108.521 23.0937 116.302C23.0916 128.924 23.0849 141.546 23.0754 154.169C23.0663 166.433 23.0592 178.697 23.0549 190.962C23.0547 191.717 23.0544 192.473 23.0541 193.251C23.0528 197.041 23.0516 200.83 23.0503 204.62C23.0399 236.08 23.0223 267.54 23 299C21.3439 299.382 19.6754 299.714 18 300C16.4615 298.462 16.8746 297.057 16.8742 294.913C16.8716 294.027 16.8689 293.141 16.8663 292.228C16.8685 291.243 16.8707 290.258 16.873 289.244C16.8715 288.206 16.8699 287.169 16.8683 286.1C16.8643 282.595 16.8675 279.091 16.8706 275.586C16.8693 273.085 16.8675 270.584 16.8653 268.083C16.8612 261.978 16.8618 255.873 16.8647 249.768C16.867 244.809 16.8673 239.849 16.8662 234.89C16.866 234.185 16.8659 233.481 16.8657 232.755C16.8654 231.324 16.8651 229.893 16.8647 228.462C16.8619 215.028 16.8652 201.594 16.8705 188.16C16.875 176.62 16.8742 165.081 16.8696 153.541C16.8643 140.157 16.8622 126.772 16.8652 113.388C16.8656 111.962 16.8659 110.536 16.8662 109.11C16.8664 108.058 16.8664 108.058 16.8667 106.984C16.8675 102.028 16.8661 97.0713 16.8637 92.1149C16.8606 85.4502 16.8628 78.7855 16.8686 72.1208C16.8699 69.6669 16.8695 67.213 16.8673 64.7591C16.8646 61.4248 16.868 58.0906 16.873 54.7563C16.8708 53.7716 16.8686 52.7869 16.8663 51.7724C16.8689 50.8862 16.8715 50.0001 16.8742 49.0871C16.8743 48.3164 16.8745 47.5457 16.8747 46.7517C17 45 17 45 18 44Z" fill="url(#paint8_linear_4_2)"/>
<path d="M36 55C37.32 55 38.64 55 40 55C41.1542 57.3083 41.1253 58.6081 41.1258 61.1761C41.1284 62.0567 41.1311 62.9372 41.1337 63.8445C41.1315 64.8178 41.1293 65.7911 41.127 66.7939C41.1293 68.338 41.1293 68.338 41.1317 69.9132C41.1357 73.3848 41.1325 76.8565 41.1294 80.3281C41.1307 82.8079 41.1325 85.2877 41.1347 87.7675C41.1388 93.8171 41.1382 99.8668 41.1353 105.917C41.133 110.832 41.1327 115.747 41.1338 120.662C41.134 121.36 41.1341 122.059 41.1343 122.779C41.1346 124.197 41.1349 125.616 41.1352 127.035C41.1381 140.352 41.1348 153.669 41.1294 166.986C41.125 178.421 41.1258 189.857 41.1304 201.293C41.1357 214.561 41.1378 227.829 41.1348 241.097C41.1344 242.511 41.1341 243.924 41.1338 245.338C41.1337 246.034 41.1335 246.73 41.1333 247.446C41.1325 252.358 41.1339 257.269 41.1363 262.18C41.1394 268.786 41.1372 275.392 41.1314 281.997C41.1301 284.428 41.1305 286.859 41.1327 289.29C41.1354 292.595 41.132 295.901 41.127 299.206C41.1292 300.179 41.1314 301.153 41.1337 302.156C41.1311 303.036 41.1285 303.917 41.1258 304.824C41.1257 305.588 41.1255 306.351 41.1253 307.138C41 309 41 309 40 311C36.125 310.125 36.125 310.125 35 309C34.9027 307.646 34.8744 306.286 34.8742 304.929C34.8715 304.046 34.8689 303.163 34.8663 302.254C34.8685 301.273 34.8707 300.292 34.873 299.282C34.8715 298.248 34.8699 297.215 34.8683 296.15C34.8643 292.66 34.8675 289.169 34.8706 285.678C34.8692 283.187 34.8675 280.696 34.8653 278.204C34.8612 272.123 34.8618 266.043 34.8647 259.962C34.867 255.022 34.8673 250.082 34.8662 245.142C34.866 244.44 34.8659 243.739 34.8657 243.016C34.8654 241.59 34.8651 240.165 34.8647 238.739C34.8619 225.358 34.8652 211.977 34.8705 198.596C34.875 187.102 34.8742 175.608 34.8696 164.114C34.8643 150.782 34.8622 137.45 34.8652 124.119C34.8656 122.699 34.8659 121.278 34.8662 119.858C34.8664 118.81 34.8664 118.81 34.8666 117.74C34.8675 112.803 34.8661 107.867 34.8637 102.93C34.8606 96.2913 34.8628 89.6528 34.8686 83.0144C34.8699 80.5702 34.8695 78.1259 34.8673 75.6817C34.8646 72.3606 34.868 69.0395 34.873 65.7184C34.8708 64.7376 34.8686 63.7568 34.8663 62.7462C34.8689 61.8635 34.8715 60.9809 34.8742 60.0714C34.8743 59.3038 34.8745 58.5362 34.8746 57.7453C35 56 35 56 36 55Z" fill="url(#paint9_linear_4_2)"/>
<path d="M207 85C207.99 85.33 208.98 85.66 210 86C210 170.15 210 254.3 210 341C209.01 341.33 208.02 341.66 207 342C206.34 341.67 205.68 341.34 205 341C204.954 308.676 204.919 276.352 204.898 244.028C204.895 240.215 204.893 236.402 204.89 232.589C204.89 231.83 204.889 231.071 204.889 230.289C204.88 217.985 204.864 205.68 204.846 193.376C204.827 180.758 204.816 168.14 204.812 155.523C204.809 147.732 204.8 139.941 204.784 132.15C204.772 126.184 204.771 120.218 204.774 114.252C204.773 111.799 204.769 109.345 204.762 106.892C204.752 103.556 204.754 100.22 204.759 96.8833C204.754 95.9009 204.748 94.9184 204.742 93.9061C204.746 93.0174 204.75 92.1286 204.754 91.2129C204.753 90.4421 204.752 89.6712 204.752 88.8771C205 87 205 87 207 85Z" fill="url(#paint10_linear_4_2)"/>
<path d="M0.999992 33C1.98999 33 2.97999 33 3.99999 33C5.15344 35.3069 5.12626 36.6069 5.12863 39.1733C5.13185 40.0532 5.13508 40.9332 5.1384 41.8398C5.13685 42.8124 5.1353 43.7851 5.1337 44.7872C5.13597 45.8159 5.13824 46.8445 5.14057 47.9043C5.14693 51.3736 5.14608 54.8429 5.14526 58.3123C5.14825 60.7904 5.15165 63.2686 5.15543 65.7467C5.16337 71.7927 5.16649 77.8387 5.16705 83.8848C5.16752 88.7974 5.16957 93.7101 5.17275 98.6228C5.18156 112.541 5.18617 126.459 5.18542 140.377C5.18538 141.128 5.18534 141.879 5.18529 142.652C5.18525 143.404 5.18521 144.156 5.18517 144.93C5.18476 157.117 5.19434 169.305 5.20843 181.492C5.22278 193.995 5.2297 206.499 5.22884 219.003C5.22851 226.027 5.23128 233.051 5.24202 240.075C5.25205 246.678 5.2518 253.281 5.2445 259.884C5.24345 262.313 5.24584 264.742 5.25186 267.171C5.25952 270.476 5.25498 273.781 5.24723 277.086C5.25237 278.056 5.25752 279.027 5.26282 280.026C5.25822 280.909 5.25362 281.792 5.24888 282.701C5.24921 283.846 5.24921 283.846 5.24954 285.014C4.99999 287 4.99999 287 2.99999 290C2.00999 289.67 1.01999 289.34 -7.98702e-06 289C-0.0227976 256.532 -0.0405058 224.063 -0.0510733 191.595C-0.0523241 187.765 -0.0536184 183.936 -0.0549396 180.107C-0.0552019 179.345 -0.0554643 178.582 -0.0557345 177.797C-0.0600914 165.437 -0.067979 153.077 -0.0771608 140.717C-0.086497 128.044 -0.0920635 115.371 -0.0940964 102.697C-0.0954717 94.8712 -0.0998228 87.0449 -0.107924 79.2186C-0.113812 73.2275 -0.114467 67.2365 -0.113116 61.2455C-0.113392 58.7803 -0.1154 56.3151 -0.119213 53.8499C-0.124144 50.5003 -0.123009 47.1507 -0.120263 43.801C-0.123175 42.8118 -0.126088 41.8225 -0.129089 40.8032C-0.127098 39.913 -0.125107 39.0227 -0.123056 38.1055C-0.123436 37.3312 -0.123815 36.557 -0.124207 35.7593C-8.04663e-06 34 -7.98702e-06 34 0.999992 33Z" fill="url(#paint11_linear_4_2)"/>
<path d="M224 96C225.98 96.495 225.98 96.495 228 97C228 180.82 228 264.64 228 351C226.35 351.33 224.7 351.66 223 352C222.977 319.532 222.959 287.063 222.949 254.595C222.948 250.765 222.946 246.936 222.945 243.107C222.945 242.345 222.945 241.582 222.944 240.797C222.94 228.437 222.932 216.077 222.923 203.717C222.914 191.044 222.908 178.371 222.906 165.697C222.905 157.871 222.9 150.045 222.892 142.219C222.886 136.228 222.886 130.237 222.887 124.245C222.887 121.78 222.885 119.315 222.881 116.85C222.876 113.5 222.877 110.151 222.88 106.801C222.877 105.812 222.874 104.822 222.871 103.803C222.873 102.913 222.875 102.023 222.877 101.105C222.877 100.331 222.876 99.557 222.876 98.7593C223 97 223 97 224 96Z" fill="url(#paint12_linear_4_2)"/>
<path d="M188 75C189.98 75.495 189.98 75.495 192 76C192 159.82 192 243.64 192 330C190.68 330.33 189.36 330.66 188 331C186.462 329.462 186.875 328.057 186.874 325.913C186.872 325.027 186.869 324.141 186.866 323.228C186.868 322.243 186.871 321.258 186.873 320.244C186.871 319.206 186.87 318.169 186.868 317.1C186.864 313.595 186.867 310.091 186.871 306.586C186.869 304.085 186.867 301.584 186.865 299.083C186.861 292.978 186.862 286.873 186.865 280.768C186.867 275.809 186.867 270.849 186.866 265.89C186.866 265.185 186.866 264.481 186.866 263.755C186.865 262.324 186.865 260.893 186.865 259.462C186.862 246.028 186.865 232.594 186.871 219.16C186.875 207.62 186.874 196.081 186.87 184.541C186.864 171.157 186.862 157.772 186.865 144.388C186.866 142.962 186.866 141.536 186.866 140.11C186.866 139.058 186.866 139.058 186.867 137.984C186.868 133.028 186.866 128.071 186.864 123.115C186.861 116.45 186.863 109.786 186.869 103.121C186.87 100.667 186.87 98.213 186.867 95.7591C186.865 92.4248 186.868 89.0906 186.873 85.7563C186.871 84.7716 186.869 83.7869 186.866 82.7724C186.869 81.8862 186.871 81.0001 186.874 80.0871C186.874 79.3164 186.874 78.5457 186.875 77.7517C187 76 187 76 188 75Z" fill="url(#paint13_linear_4_2)"/>
<path d="M242 107C244.062 107.438 244.062 107.438 246 108C246.023 140.197 246.04 172.393 246.051 204.59C246.052 208.388 246.054 212.186 246.055 215.983C246.055 216.739 246.055 217.496 246.056 218.275C246.06 230.531 246.068 242.787 246.077 255.042C246.086 267.61 246.092 280.178 246.094 292.746C246.095 300.507 246.1 308.267 246.108 316.027C246.114 321.97 246.114 327.912 246.113 333.854C246.113 336.298 246.115 338.742 246.119 341.186C246.124 344.509 246.123 347.832 246.12 351.155C246.123 352.133 246.126 353.112 246.129 354.12C246.127 355.005 246.125 355.891 246.123 356.803C246.123 357.57 246.124 358.338 246.124 359.129C246 361 246 361 245 363C243.68 362.67 242.36 362.34 241 362C240.977 329.659 240.959 297.318 240.949 264.977C240.948 261.163 240.946 257.349 240.945 253.534C240.945 252.775 240.945 252.016 240.944 251.233C240.94 238.922 240.932 226.61 240.923 214.299C240.914 201.675 240.908 189.052 240.906 176.428C240.905 168.633 240.9 160.837 240.892 153.042C240.886 147.074 240.886 141.107 240.887 135.139C240.887 132.684 240.885 130.228 240.881 127.773C240.876 124.436 240.877 121.1 240.88 117.763C240.877 116.778 240.874 115.792 240.871 114.777C240.873 113.89 240.875 113.004 240.877 112.09C240.877 111.319 240.876 110.547 240.876 109.753C241 108 241 108 242 107Z" fill="url(#paint14_linear_4_2)"/>
</g>
<defs>
<linearGradient id="paint0_linear_4_2" x1="389.476" y1="198.082" x2="1396" y2="198.082" gradientUnits="userSpaceOnUse">
<stop stop-color="#2F54EB"/>
<stop offset="1" stop-color="#597EF7"/>
</linearGradient>
<linearGradient id="paint1_linear_4_2" x1="389.476" y1="198.082" x2="1396" y2="198.082" gradientUnits="userSpaceOnUse">
<stop stop-color="#2F54EB"/>
<stop offset="1" stop-color="#597EF7"/>
</linearGradient>
<linearGradient id="paint2_linear_4_2" x1="389.476" y1="198.082" x2="1396" y2="198.082" gradientUnits="userSpaceOnUse">
<stop stop-color="#2F54EB"/>
<stop offset="1" stop-color="#597EF7"/>
</linearGradient>
<linearGradient id="paint3_linear_4_2" x1="389.476" y1="198.082" x2="1396" y2="198.082" gradientUnits="userSpaceOnUse">
<stop stop-color="#2F54EB"/>
<stop offset="1" stop-color="#597EF7"/>
</linearGradient>
<linearGradient id="paint4_linear_4_2" x1="389.476" y1="198.082" x2="1396" y2="198.082" gradientUnits="userSpaceOnUse">
<stop stop-color="#2F54EB"/>
<stop offset="1" stop-color="#597EF7"/>
</linearGradient>
<linearGradient id="paint5_linear_4_2" x1="389.476" y1="198.082" x2="1396" y2="198.082" gradientUnits="userSpaceOnUse">
<stop stop-color="#2F54EB"/>
<stop offset="1" stop-color="#597EF7"/>
</linearGradient>
<linearGradient id="paint6_linear_4_2" x1="389.476" y1="198.082" x2="1396" y2="198.082" gradientUnits="userSpaceOnUse">
<stop stop-color="#2F54EB"/>
<stop offset="1" stop-color="#597EF7"/>
</linearGradient>
<linearGradient id="paint7_linear_4_2" x1="-0.129089" y1="198" x2="246.129" y2="198" gradientUnits="userSpaceOnUse">
<stop stop-color="#2F54EB"/>
<stop offset="1" stop-color="#597EF7"/>
</linearGradient>
<linearGradient id="paint8_linear_4_2" x1="-0.129089" y1="198" x2="246.129" y2="198" gradientUnits="userSpaceOnUse">
<stop stop-color="#2F54EB"/>
<stop offset="1" stop-color="#597EF7"/>
</linearGradient>
<linearGradient id="paint9_linear_4_2" x1="-0.129089" y1="198" x2="246.129" y2="198" gradientUnits="userSpaceOnUse">
<stop stop-color="#2F54EB"/>
<stop offset="1" stop-color="#597EF7"/>
</linearGradient>
<linearGradient id="paint10_linear_4_2" x1="-0.129089" y1="198" x2="246.129" y2="198" gradientUnits="userSpaceOnUse">
<stop stop-color="#2F54EB"/>
<stop offset="1" stop-color="#597EF7"/>
</linearGradient>
<linearGradient id="paint11_linear_4_2" x1="-0.129089" y1="198" x2="246.129" y2="198" gradientUnits="userSpaceOnUse">
<stop stop-color="#2F54EB"/>
<stop offset="1" stop-color="#597EF7"/>
</linearGradient>
<linearGradient id="paint12_linear_4_2" x1="-0.129089" y1="198" x2="246.129" y2="198" gradientUnits="userSpaceOnUse">
<stop stop-color="#2F54EB"/>
<stop offset="1" stop-color="#597EF7"/>
</linearGradient>
<linearGradient id="paint13_linear_4_2" x1="-0.129089" y1="198" x2="246.129" y2="198" gradientUnits="userSpaceOnUse">
<stop stop-color="#2F54EB"/>
<stop offset="1" stop-color="#597EF7"/>
</linearGradient>
<linearGradient id="paint14_linear_4_2" x1="-0.129089" y1="198" x2="246.129" y2="198" gradientUnits="userSpaceOnUse">
<stop stop-color="#2F54EB"/>
<stop offset="1" stop-color="#597EF7"/>
</linearGradient>
<clipPath id="clip0_4_2">
<rect width="1396" height="396" fill="white"/>
</clipPath>
</defs>
</svg>
